<svg width="48" height="48" viewBox="0 0 48 48" fill="none" xmlns="http://www.w3.org/2000/svg">
<rect width="48" height="48" rx="12" fill="url(#paint0_linear_62_1174)"/>
<g clip-path="url(#clip0_62_1174)">
<path fill-rule="evenodd" clip-rule="evenodd" d="M14.4619 16.7273H9.90997V18.6612H12.5679L12.5858 31.2727H14.4619V16.7273ZM33.104 18.555V18.6183L33.1098 18.6816L33.1178 18.7449L33.1279 18.806L33.1422 18.8671L33.1582 18.9264L33.178 18.9857L33.1998 19.043L33.2259 19.0981L33.252 19.1531L33.2817 19.2063L33.3136 19.2573L33.3498 19.3062L33.386 19.3533L33.4239 19.4003L33.4659 19.4433L33.5081 19.4862L33.5539 19.5249L33.6002 19.5618L33.6481 19.5985L33.698 19.6312L33.7498 19.6618L33.804 19.6884L33.8577 19.7147L33.9135 19.7373L33.9717 19.7577L34.0297 19.774L34.0898 19.7884L34.1495 19.7984L34.2117 19.8066L34.2736 19.8128H34.402L34.4636 19.8066L34.5276 19.7984L34.5893 19.7884L34.6495 19.774L34.7076 19.7577L34.7655 19.7373L34.8214 19.7147L34.8774 19.6884L34.9295 19.6618L34.9817 19.6312L35.0312 19.5985L35.0796 19.5618L35.1254 19.5249L35.1712 19.4862L35.2132 19.4433L35.2533 19.4003L35.2916 19.3533L35.3274 19.3062L35.3615 19.2573L35.3935 19.2063L35.4238 19.1531L35.4493 19.0981L35.4754 19.043L35.4957 18.9857L35.5153 18.9264L35.5312 18.8671L35.5456 18.806L35.5552 18.7449L35.5636 18.6816L35.5673 18.6183L35.5695 18.555L35.5673 18.4896L35.5636 18.4263L35.5552 18.363L35.5456 18.3019L35.5312 18.2427L35.5153 18.1834L35.4957 18.1241L35.4754 18.0691L35.4493 18.0143L35.4238 17.961L35.3935 17.908L35.3615 17.8569L35.3274 17.81L35.2916 17.763L35.2533 17.7181L35.2132 17.6753L35.1712 17.6344L35.1254 17.5956L35.0796 17.5589L35.0312 17.5242L34.9817 17.4916L34.9295 17.4608L34.8774 17.4342L34.8214 17.4098L34.7655 17.3872L34.7076 17.3689L34.6495 17.3527L34.5893 17.3383L34.5276 17.3279L34.4636 17.3199L34.402 17.3138H34.2736L34.2117 17.3199L34.1495 17.3279L34.0898 17.3383L34.0297 17.3527L33.9717 17.3689L33.9135 17.3872L33.8577 17.4098L33.804 17.4342L33.7498 17.4608L33.698 17.4916L33.6481 17.5242L33.6002 17.5589L33.5539 17.5956L33.5081 17.6344L33.4659 17.6753L33.4239 17.7181L33.386 17.763L33.3498 17.81L33.3136 17.8569L33.2817 17.908L33.252 17.961L33.2259 18.0143L33.1998 18.0691L33.178 18.1241L33.1582 18.1834L33.1422 18.2427L33.1279 18.3019L33.1178 18.363L33.1098 18.4263L33.104 18.4896V18.555ZM33.3461 18.555L33.3478 18.4998L33.352 18.4466L33.3578 18.3935L33.3658 18.3405L33.376 18.2894L33.3898 18.2405L33.4059 18.1913L33.4218 18.1443L33.4421 18.0975L33.4638 18.0525L33.4878 18.0076L33.5138 17.9666L33.5399 17.9259L33.5698 17.8852L33.6002 17.8486L33.6336 17.8119L33.6677 17.7771L33.7018 17.7444L33.7396 17.7137L33.7781 17.6852L33.8201 17.6586L33.86 17.632L33.9037 17.6097L33.9479 17.589L33.9919 17.5708L34.0377 17.5546L34.0856 17.5402L34.1337 17.528L34.1837 17.5198L34.2337 17.5136L34.2838 17.5096L34.3359 17.5077L34.3875 17.5096L34.4398 17.5136L34.4898 17.5198L34.5398 17.528L34.5878 17.5402L34.6357 17.5546L34.6815 17.5708L34.7279 17.589L34.7737 17.6097L34.8157 17.632L34.8578 17.6586L34.8999 17.6852L34.9398 17.7137L34.9777 17.7444L35.014 17.7771L35.0475 17.8119L35.0816 17.8486L35.1135 17.8852L35.144 17.9259L35.1717 17.9666L35.1977 18.0076L35.2217 18.0525L35.244 18.0975L35.2637 18.1443L35.2819 18.1913L35.2979 18.2405L35.3118 18.2894L35.324 18.3405L35.3319 18.3935L35.3378 18.4466L35.3421 18.4998L35.3437 18.555L35.3421 18.6101L35.3378 18.6651L35.3319 18.7204L35.324 18.7734L35.3118 18.8264L35.2979 18.8775L35.2819 18.9286L35.2637 18.9775L35.244 19.0265L35.2217 19.0735L35.1977 19.1184L35.1717 19.1613L35.144 19.204L35.1135 19.245L35.0816 19.2838L35.0475 19.3205L35.014 19.3572L34.9777 19.3898L34.9398 19.4225L34.8999 19.4531L34.8578 19.4816L34.8157 19.506L34.7737 19.5308L34.7279 19.5512L34.6815 19.5715L34.6357 19.5877L34.5878 19.6022L34.5398 19.6143L34.4898 19.6244L34.4398 19.6307L34.3875 19.6347L34.3359 19.6369L34.2838 19.6347L34.2337 19.6307L34.1837 19.6244L34.1337 19.6143L34.0856 19.6022L34.0377 19.5877L33.9919 19.5715L33.9479 19.5512L33.9037 19.5308L33.86 19.506L33.8201 19.4816L33.7781 19.4531L33.7396 19.4225L33.7018 19.3898L33.6677 19.3572L33.6336 19.3205L33.6002 19.2838L33.5698 19.245L33.5399 19.204L33.5138 19.1613L33.4878 19.1184L33.4638 19.0735L33.4421 19.0265L33.4218 18.9775L33.4059 18.9286L33.3898 18.8775L33.376 18.8264L33.3658 18.7734L33.3578 18.7204L33.352 18.6651L33.3478 18.6101L33.3461 18.555ZM33.9024 19.1757H34.1282V18.6613H34.3024L34.3482 18.6632L34.3881 18.6674L34.4244 18.6736L34.4563 18.6818L34.4823 18.694L34.5042 18.7062L34.5243 18.7206L34.5383 18.7368L34.5501 18.7531L34.5603 18.7714L34.5682 18.7898L34.5741 18.8102L34.5762 18.8306L34.5783 18.8509L34.5804 18.8715V19.0203L34.5826 19.0655L34.5864 19.1L34.59 19.1144L34.5923 19.1266L34.5965 19.1367L34.6024 19.1447L34.6082 19.1529L34.6145 19.1613L34.6226 19.1672L34.6322 19.1754H34.8585L34.8485 19.1653L34.8426 19.1549L34.8361 19.1446L34.8303 19.1345L34.8224 19.1142L34.8186 19.0855L34.8144 19.01L34.8065 18.8917L34.8044 18.8385L34.8007 18.7896L34.7964 18.7652L34.7925 18.7426L34.7862 18.7204L34.7789 18.6979L34.7686 18.6774L34.7565 18.659L34.7425 18.6406L34.7267 18.6242L34.7066 18.6101L34.6847 18.5957L34.6608 18.5835L34.6326 18.5713L34.6667 18.5591L34.6971 18.5428L34.7226 18.5266L34.747 18.5102L34.7646 18.4936L34.7828 18.4755L34.7968 18.4548L34.809 18.4365L34.819 18.4181L34.8251 18.3977L34.8309 18.3791L34.8351 18.361L34.841 18.3222V18.2589L34.8389 18.2324L34.8351 18.2058L34.8288 18.1814L34.823 18.1589L34.815 18.1364L34.8048 18.1182L34.7969 18.0978L34.7852 18.0816L34.7731 18.065L34.7613 18.0509L34.7473 18.0365L34.7329 18.0243L34.7191 18.0122L34.7032 18.0019L34.6873 17.9918L34.6554 17.9754L34.6212 17.961L34.5893 17.9528L34.5552 17.9446L34.5234 17.9387L34.4931 17.9366L34.4674 17.9344H33.9035V19.1759L33.9024 19.1757ZM34.128 18.0934H34.382L34.4096 18.0955L34.4357 18.0995L34.4597 18.1037L34.4842 18.1096L34.506 18.1181L34.5241 18.1262L34.5417 18.1384L34.5599 18.1506L34.5737 18.165L34.5859 18.1791L34.5961 18.1976L34.6041 18.2181L34.6099 18.2383L34.6141 18.2628V18.3056L34.612 18.322L34.6098 18.3383L34.6055 18.3568L34.5996 18.3731L34.5937 18.3894L34.5837 18.4037L34.5735 18.4178L34.5597 18.4322L34.5438 18.4444L34.5256 18.4567L34.5038 18.4649L34.4798 18.4731L34.4537 18.4794L34.4219 18.4813L34.3876 18.4834H34.1279V18.0932L34.128 18.0934ZM40 28.0098H23.3061L23.0979 28.0031L22.894 27.9869L22.6922 27.9619L22.494 27.9261L22.3002 27.8805L22.1101 27.8249L21.9222 27.7598L21.7402 27.6892L21.5622 27.6055L21.3882 27.5153L21.2202 27.4175L21.058 27.3109L20.9002 27.1969L20.7502 27.0762L20.6041 26.9479L20.4641 26.811L20.3322 26.6697L20.2063 26.5207L20.0881 26.3652L19.9763 26.2066L19.8722 26.0392L19.7742 25.8675L19.6863 25.6914L19.6061 25.5099L19.5342 25.3219L19.4722 25.1328L19.4181 24.9382L19.3743 24.7403L19.3382 24.5382L19.3121 24.3317L19.2983 24.1234L19.2921 23.9113L19.2962 23.701L19.3103 23.4926L19.3321 23.2885L19.3661 23.0864L19.4082 22.8884L19.4601 22.6925L19.5222 22.5005L19.5921 22.3127L19.6702 22.1287L19.7562 21.9512L19.8502 21.7775L19.9539 21.6079L20.064 21.4447L20.18 21.2873L20.3058 21.1363L20.4361 20.9915L20.5741 20.8525L20.7199 20.7219L20.8699 20.5974L21.0259 20.4809L21.188 20.3706L21.3558 20.2706L21.53 20.1768L21.7079 20.0928L21.8921 20.0172L22.078 19.9499L22.2699 19.8946L22.466 19.848L22.666 19.8092L22.8699 19.7826L23.0781 19.7662L23.2879 19.76L23.4919 19.7662L23.694 19.7826L23.8939 19.8111L24.09 19.848L24.2841 19.8969L24.476 19.9562L24.6619 20.0235L24.8461 20.101L25.0261 20.1889L25.1997 20.2851L25.3703 20.3893L25.5359 20.5036L25.6962 20.624L25.8501 20.7547L25.9983 20.8916L26.1422 21.0365L26.2784 21.1875L26.4063 21.3467L26.5282 21.5123L26.6443 21.6837L26.7524 21.8633L26.8505 22.0473L26.9421 22.2373L27.0263 22.4332L27.1002 22.6334L27.1663 22.8393L27.2223 23.0477L27.2687 23.2622L27.3045 23.4828L27.3325 23.705L27.3486 23.9298L27.3522 24.1602H25.4767L25.4745 24.0318L25.4686 23.9071L25.4564 23.7827L25.4385 23.6623L25.4187 23.5419L25.3927 23.4253L25.3622 23.311L25.3287 23.1986L25.2903 23.0883L25.2467 22.982L25.2003 22.88L25.1487 22.7798L25.0929 22.682L25.0326 22.5902L24.9687 22.5003L24.9026 22.4148L24.8307 22.3329L24.7545 22.2553L24.6747 22.1838L24.5928 22.1146L24.5065 22.0512L24.4144 21.9919L24.3207 21.9368L24.2246 21.8876L24.1227 21.8428L24.0188 21.8039L23.9106 21.7713L23.8006 21.7447L23.6845 21.7224L23.5688 21.7061L23.4468 21.6979L23.3226 21.6939L23.1986 21.6979L23.0788 21.7061L22.9607 21.7224L22.8466 21.7447L22.7347 21.7713L22.6266 21.8039L22.5229 21.8428L22.4229 21.8876L22.3249 21.9368L22.2309 21.9919L22.1408 22.0512L22.0528 22.1146L21.9709 22.1838L21.891 22.2553L21.817 22.3329L21.7451 22.4148L21.6769 22.5003L21.6129 22.5902L21.5529 22.682L21.4992 22.7798L21.447 22.88L21.3991 22.982L21.357 23.0883L21.3171 23.1986L21.283 23.311L21.2532 23.4253L21.2271 23.5419L21.2071 23.6623L21.1912 23.7827L21.1791 23.9071L21.1712 24.0318L21.1691 24.1602L21.1733 24.2624L21.1812 24.3625L21.1973 24.4624L21.2173 24.5592L21.2452 24.6549L21.2751 24.7462L21.3131 24.8385L21.3553 24.9266L21.4013 25.0124L21.4514 25.0961L21.5072 25.1775L21.5672 25.2548L21.6314 25.3308L21.6972 25.4028L21.7693 25.4734L21.8433 25.5385L21.9193 25.6028L21.9993 25.6615L22.0832 25.719L22.1693 25.7723L22.2571 25.8212L22.3472 25.8657L22.4393 25.9082L22.5332 25.9451L22.6272 25.9799L22.7253 26.0081L22.8233 26.0353L22.9212 26.0559L23.0213 26.0723L23.1212 26.0844L23.2232 26.0908L23.3233 26.0941H40.0011V28.0103L40 28.0098ZM40 31.0412H23.3222L22.968 31.0337L22.6182 31.0065L22.2702 30.9664L21.9301 30.9066L21.5941 30.8336L21.2662 30.7436L20.9423 30.637L20.6262 30.5172L20.3181 30.3836L20.0162 30.2346L19.7243 30.0737L19.4401 29.8976L19.1661 29.7095L18.902 29.5084L18.648 29.2953L18.4041 29.0703L18.1722 28.8345L17.9501 28.5866L17.7421 28.3279L17.5462 28.0605L17.3621 27.7802L17.1919 27.4921L17.0361 27.1943L16.8941 26.8878L16.7679 26.5737L16.658 26.2508L16.5619 25.9181L16.4821 25.5811L16.4201 25.2333L16.3761 24.8823L16.3481 24.5236L16.3381 24.1595L16.3481 23.7923L16.3722 23.4309L16.416 23.0713L16.4742 22.7162L16.5481 22.3649L16.6381 22.0198L16.7441 21.681L16.8642 21.3458L16.9982 21.0211L17.1463 20.7027L17.3102 20.3923L17.486 20.0901L17.6763 19.798L17.8784 19.5161L18.092 19.2425L18.3203 18.9812L18.558 18.7319L18.8083 18.4931L19.0701 18.2687L19.3423 18.0561L19.6243 17.8581L19.9162 17.6744L20.2203 17.5048L20.5302 17.3518L20.8524 17.2149L21.1823 17.0922L21.5203 16.9882L21.8663 16.9026L22.2184 16.8352L22.5801 16.7841L22.9481 16.7553L23.3223 16.7453L23.6983 16.7533L24.0663 16.7819L24.4263 16.8288L24.7804 16.8944L25.126 16.976L25.4664 17.0759L25.7964 17.1923L26.1161 17.3252L26.4301 17.4722L26.7321 17.6354L27.0261 17.8132L27.3085 18.005L27.5822 18.2113L27.8441 18.4319L28.0944 18.6626L28.334 18.9078L28.5619 19.1652L28.7782 19.4347L28.9801 19.7143L29.1723 20.0042L29.348 20.3044L29.5121 20.6166L29.6623 20.9354L29.7959 21.2642L29.9185 21.6009L30.0224 21.946L30.1146 22.2991L30.1886 22.6587L30.2466 23.0242L30.2903 23.3981L30.3143 23.7758L30.3243 24.1594H28.4482L28.4382 23.8943L28.4205 23.6328L28.3901 23.3715L28.3487 23.1123L28.2986 22.8569L28.2363 22.6036L28.1664 22.3546L28.0845 22.1096L27.9924 21.8705L27.8908 21.6338L27.7804 21.405L27.6586 21.1803L27.5264 20.964L27.3865 20.7537L27.2368 20.5493L27.0785 20.3534L26.9089 20.1676L26.7304 19.9901L26.5445 19.8206L26.3485 19.6614L26.1424 19.5122L25.9282 19.3733L25.7061 19.2467L25.4745 19.1305L25.2344 19.0264L24.9862 18.9365L24.7305 18.8569L24.4643 18.7935L24.1906 18.7424L23.9103 18.7058L23.6204 18.6853L23.3224 18.6792L23.0245 18.6853L22.7323 18.7098L22.4503 18.7486L22.1764 18.8016L21.9103 18.8689L21.6522 18.9504L21.4022 19.0443L21.1622 19.1506L20.9303 19.2691L20.7064 19.3997L20.4922 19.5405L20.2861 19.6917L20.0901 19.8531L19.9043 20.0247L19.7262 20.2065L19.5559 20.3944L19.3981 20.5903L19.2481 20.7944L19.108 21.0069L18.9799 21.2253L18.858 21.448L18.7481 21.6765L18.648 21.9115L18.558 22.1503L18.4782 22.3933L18.4103 22.6384L18.3504 22.8877L18.3022 23.1388L18.2641 23.3921L18.2361 23.6472L18.2203 23.9025L18.2142 24.1594L18.2222 24.3908L18.24 24.6212L18.272 24.8516L18.314 25.0789L18.3681 25.3071L18.4341 25.5321L18.512 25.755L18.6 25.9735L18.6979 26.1876L18.8081 26.3995L18.9279 26.606L19.056 26.8082L19.1958 27.0038L19.3438 27.1963L19.5019 27.3799L19.6678 27.5571L19.8417 27.7289L20.0259 27.8918L20.2179 28.0451L20.4159 28.193L20.622 28.3299L20.8359 28.4561L21.0577 28.5746L21.2859 28.6811L21.5197 28.7789L21.7599 28.8625L22.0078 28.9353L22.2599 28.9974L22.5178 29.0442L22.7818 29.0788L23.0497 29.1017L23.3219 29.1072H39.9997V31.0408L40 31.0412ZM11.7519 19.7251H8V21.6587H9.89404V31.2726H11.7699L11.7519 19.7249V19.7251Z" fill="white"/>
</g>
<defs>
<linearGradient id="paint0_linear_62_1174" x1="44" y1="2.5" x2="4" y2="46" gradientUnits="userSpaceOnUse">
<stop stop-color="#BE3021"/>
<stop offset="1" stop-color="#F27D71"/>
</linearGradient>
<clipPath id="clip0_62_1174">
<rect width="32" height="14.5455" fill="white" transform="translate(8 16.7273)"/>
</clipPath>
</defs>
</svg>
