<svg width="48" height="48" viewBox="0 0 48 48" fill="none" xmlns="http://www.w3.org/2000/svg">
<rect width="48" height="48" rx="12" fill="url(#paint0_linear_62_1164)"/>
<path d="M28.7873 27.1595C28.9264 27.7504 29 28.3666 29 29C29 33.4183 25.4183 37 21 37V30.6004M28.7873 27.1595C33.7659 23.5215 37 17.6383 37 11C30.362 11.0003 24.4793 14.2345 20.8416 19.213M28.7873 27.1595C26.5092 28.8241 23.8658 30.0187 21 30.6004M20.8416 19.213C20.2504 19.0737 19.6338 19 19 19C14.5817 19 11 22.5817 11 27H17.401M20.8416 19.213C19.1771 21.491 17.9827 24.1343 17.401 27M21 30.6004C20.8621 30.6284 20.7237 30.655 20.5848 30.6801C19.3756 29.7213 18.2799 28.6256 17.3211 27.4164C17.3463 27.2771 17.3729 27.1383 17.401 27M14.4159 30.1877C12.9495 31.2816 12 33.0299 12 35C12 35.3158 12.0244 35.6259 12.0714 35.9286C12.3741 35.9756 12.6842 36 13 36C14.9701 36 16.7184 35.0505 17.8123 33.5841M30 20C30 21.1046 29.1046 22 28 22C26.8954 22 26 21.1046 26 20C26 18.8954 26.8954 18 28 18C29.1046 18 30 18.8954 30 20Z" stroke="white" stroke-width="2" stroke-linecap="round" stroke-linejoin="round"/>
<defs>
<linearGradient id="paint0_linear_62_1164" x1="44" y1="2.5" x2="4" y2="46" gradientUnits="userSpaceOnUse">
<stop stop-color="#BE3021"/>
<stop offset="1" stop-color="#F27D71"/>
</linearGradient>
</defs>
</svg>
