<svg width="60" height="40" viewBox="0 0 60 40" fill="none" xmlns="http://www.w3.org/2000/svg">
<path fill-rule="evenodd" clip-rule="evenodd" d="M50 8.83721C50 6.49302 49.0698 4.24558 47.4121 2.58791C45.7544 0.930233 43.507 0 41.1628 0H18.8372C16.493 0 14.2456 0.930233 12.5879 2.58791C10.9302 4.24558 10 6.49302 10 8.83721V31.1628C10 33.507 10.9302 35.7544 12.5879 37.4121C14.2456 39.0698 16.493 40 18.8372 40H41.1628C43.507 40 45.7544 39.0698 47.4121 37.4121C49.0698 35.7544 50 33.507 50 31.1628V8.83721ZM30.9079 12.8614L26.4428 26.2567C26.2009 26.9879 26.5953 27.7786 27.3265 28.0223C28.0577 28.2642 28.8484 27.8698 29.0921 27.1386L33.5572 13.7433C33.7991 13.0121 33.4047 12.2214 32.6735 11.9777C31.9423 11.7358 31.1516 12.1302 30.9079 12.8614ZM35.7116 16.5209L39.1888 20L35.7116 23.4791C35.1665 24.0223 35.1665 24.9079 35.7116 25.4512C36.2549 25.9963 37.1405 25.9963 37.6837 25.4512L42.1488 20.986C42.694 20.4409 42.694 19.5591 42.1488 19.014L37.6837 14.5488C37.1405 14.0037 36.2549 14.0037 35.7116 14.5488C35.1665 15.0921 35.1665 15.9777 35.7116 16.5209ZM22.3163 14.5488L17.8512 19.014C17.306 19.5591 17.306 20.4409 17.8512 20.986L22.3163 25.4512C22.8595 25.9963 23.7451 25.9963 24.2884 25.4512C24.8335 24.9079 24.8335 24.0223 24.2884 23.4791L20.8112 20L24.2884 16.5209C24.8335 15.9777 24.8335 15.0921 24.2884 14.5488C23.7451 14.0037 22.8595 14.0037 22.3163 14.5488Z" fill="white"/>
</svg>
